<?xml version="1.0" encoding="utf-8"?>
<svg version="1.1" xmlns:xlink="http://www.w3.org/1999/xlink" width="12px" height="12px" viewBox="120 153  12 12" xmlns="http://www.w3.org/2000/svg">
  <path d="M 126 153  C 129.36 153  132 155.64  132 159  C 132 162.36  129.36 165  126 165  C 122.64 165  120 162.36  120 159  C 120 155.64  122.64 153  126 153  Z " fill-rule="nonzero" fill="#f0f0f0" stroke="none" />
  <path d="M 126 153.5  C 129.08 153.5  131.5 155.92  131.5 159  C 131.5 162.08  129.08 164.5  126 164.5  C 122.92 164.5  120.5 162.08  120.5 159  C 120.5 155.92  122.92 153.5  126 153.5  Z " stroke-width="1" stroke="#797979" fill="none" />
  <path d="M 126 162  C 124.32 162  123 160.68  123 159  C 123 157.32  124.32 156  126 156  C 127.68 156  129 157.32  129 159  C 129 160.68  127.68 162  126 162  " fill-rule="nonzero" fill="#797979" stroke="none" />
</svg>